<svg width="28" height="25" viewBox="0 0 28 25" fill="none" xmlns="http://www.w3.org/2000/svg">
<path d="M28.0001 1C28.0001 0.734784 27.8948 0.48043 27.7072 0.292893C27.5197 0.105357 27.2653 0 27.0001 0C21.4901 0 15.8364 6.21375 12.6964 10.3287C11.5749 9.98531 10.3886 9.90965 9.23266 10.1078C8.0767 10.306 6.98333 10.7726 6.04038 11.47C5.09743 12.1674 4.33118 13.0762 3.80317 14.1234C3.27515 15.1707 3.0001 16.3272 3.00011 17.5C3.00011 21.36 0.557608 23.0912 0.441358 23.1712C0.263969 23.291 0.129695 23.4646 0.0582791 23.6664C-0.0131364 23.8681 -0.0179241 24.0875 0.04462 24.2922C0.107164 24.4969 0.233739 24.6761 0.405733 24.8035C0.577728 24.931 0.786064 24.9998 1.00011 25H10.5001C11.6729 25 12.8294 24.725 13.8767 24.1969C14.9239 23.6689 15.8327 22.9027 16.5301 21.9597C17.2275 21.0168 17.6941 19.9234 17.8923 18.7675C18.0905 17.6115 18.0148 16.4252 17.6714 15.3037C21.7876 12.1637 28.0001 6.51 28.0001 1ZM10.5001 23H3.32886C4.17261 21.8012 5.00011 19.99 5.00011 17.5C5.00011 16.4122 5.32268 15.3488 5.92703 14.4444C6.53137 13.5399 7.39035 12.8349 8.39535 12.4187C9.40034 12.0024 10.5062 11.8935 11.5731 12.1057C12.64 12.3179 13.62 12.8417 14.3892 13.6109C15.1584 14.3801 15.6822 15.3601 15.8944 16.427C16.1066 17.4939 15.9977 18.5998 15.5814 19.6048C15.1652 20.6098 14.4602 21.4687 13.5557 22.0731C12.6513 22.6774 11.5879 23 10.5001 23ZM14.5526 11.1938C14.9809 10.6388 15.4014 10.1158 15.8139 9.625C16.8235 10.3071 17.693 11.1766 18.3751 12.1862C17.8834 12.5979 17.3605 13.0183 16.8064 13.4475C16.2236 12.5448 15.4553 11.7765 14.5526 11.1938ZM19.8901 10.8588C19.1352 9.7935 18.2054 8.8637 17.1401 8.10875C21.1126 3.7925 24.1089 2.48375 25.8776 2.12C25.5214 3.89 24.2064 6.88625 19.8901 10.8588Z" fill="#333333"/>
</svg>
