<svg width="137" height="101" viewBox="0 0 137 101" fill="none" xmlns="http://www.w3.org/2000/svg">
<g clip-path="url(#clip0_25_219)">
<path d="M109.745 53.2332L77.9647 54.6316C74.9003 54.8719 72.4695 57.2972 72.2292 60.3452L70.8253 78.0597C70.5905 81.0531 66.1823 81.0531 65.9474 78.0597L64.5436 60.3452C64.3033 57.2917 61.867 54.8719 58.8081 54.6316L27.0279 53.2332C24.0236 52.9983 24.0236 48.6065 27.0279 48.3717L58.8081 46.9733C61.8725 46.7329 64.3033 44.3076 64.5436 41.2596L65.9474 23.5451C66.1823 20.5517 70.5905 20.5517 70.8253 23.5451L72.2292 41.2596C72.4695 44.3131 74.9058 46.7329 77.9647 46.9733L109.745 48.3717C112.749 48.6065 112.749 52.9983 109.745 53.2332Z" fill="black"/>
<path d="M86.9722 100.805H49.8006C22.3412 100.805 0 78.3766 0 50.8079C0 23.2392 22.3412 0.805176 49.8006 0.805176H86.9722C114.432 0.805176 136.773 23.2338 136.773 50.8079C136.773 78.382 114.432 100.811 86.9722 100.811V100.805ZM49.8006 8.45252C26.5581 8.45252 7.64735 27.4507 7.64735 50.8079C7.64735 74.1651 26.5581 93.1633 49.8006 93.1633H86.9722C110.215 93.1633 129.125 74.1651 129.125 50.8079C129.125 27.4507 110.215 8.45252 86.9722 8.45252H49.8006Z" fill="black"/>
</g>
<defs>
<clipPath id="clip0_25_219">
<rect width="136.773" height="100" fill="white" transform="translate(0 0.805176)"/>
</clipPath>
</defs>
</svg>
