<svg width="1013" height="150" viewBox="0 0 1013 150" fill="none" xmlns="http://www.w3.org/2000/svg">
<g clip-path="url(#clip0_486_1560)">
<path d="M290.15 120.8C304.43 120.8 313.95 115.19 313.78 104.14C313.78 93.09 304.26 86.29 281.82 80.68C260.06 75.41 242.55 65.38 242.55 46C242.55 25.09 259.55 12 284.03 12C310.21 12 327.89 28.32 330.44 51.27L311.74 52.29C309.7 38.01 299.16 28.66 283.69 28.66C270.77 28.66 261.42 35.46 261.59 46.17C261.59 59.26 277.23 63.17 291.85 67.08C315.48 73.03 332.82 84.25 332.82 102.78C332.82 125.39 312.42 137.46 289.13 137.46C261.76 137.46 242.04 121.31 240 96.49L258.87 95.3C261.76 110.6 272.47 120.8 290.15 120.8Z" fill="black"/>
<path d="M364.61 14.72V72.35L415.44 14.72H437.71L391.47 67.42L440.77 135.42H419.18L379.23 80.34L364.61 96.66V135.42H346.25V14.72H364.61Z" fill="black"/>
<path d="M454.51 14.72L485.11 68.44L515.71 14.72H536.62L494.29 86.97V135.42H475.93V86.97L433.43 14.72H454.51Z" fill="black"/>
<path d="M585.24 120.8C599.52 120.8 609.04 115.19 608.87 104.14C608.87 93.09 599.35 86.29 576.91 80.68C555.15 75.41 537.64 65.38 537.64 46C537.64 25.09 554.64 12 579.12 12C605.3 12 622.98 28.32 625.53 51.27L606.83 52.29C604.79 38.01 594.25 28.66 578.78 28.66C565.86 28.66 556.51 35.46 556.68 46.17C556.68 59.26 572.32 63.17 586.94 67.08C610.57 73.03 627.91 84.25 627.91 102.78C627.91 125.39 607.51 137.46 584.22 137.46C556.85 137.46 537.13 121.31 535.09 96.49L553.96 95.3C556.85 110.6 567.56 120.8 585.24 120.8Z" fill="black"/>
<path d="M722.09 31.55H685.03V135.42H666.67V31.55H629.61V14.72H722.09V31.55Z" fill="black"/>
<path d="M749.12 14.72H772.58L816.1 135.42H796.38L785.5 103.97H736.2L725.15 135.42H705.6L749.12 14.72ZM779.72 87.31L760.85 32.23L741.98 87.31H779.72Z" fill="black"/>
<path d="M906.03 135.42L904.67 116.38C899.4 129.3 884.61 138.14 868.29 138.14C833.78 138.14 813.04 110.6 813.04 75.24C813.04 39.88 833.78 12 868.8 12C895.15 12 912.49 27.98 917.93 52.63L898.89 53.65C894.98 38.18 884.95 28.83 868.63 28.83C843.3 28.83 832.08 49.91 832.08 75.24C832.08 100.57 843.47 121.31 868.63 121.31C888.01 121.31 898.72 107.88 900.25 89.69H868.63V73.71H918.44V135.42H906.03Z" fill="black"/>
<path d="M1011.43 14.72V31.55H951.25V66.74H1009.39V83.06H951.25V118.59H1012.79V135.42H932.89V14.72H1011.43Z" fill="black"/>
</g>
<g clip-path="url(#clip1_486_1560)">
<path d="M165.292 78.6421L117.426 80.7396C112.811 81.1001 109.15 84.7381 108.788 89.3101L106.673 115.882C106.32 120.372 99.6802 120.372 99.3265 115.882L97.2121 89.3101C96.8501 84.7299 93.1808 81.1001 88.5736 80.7396L40.7079 78.6421C36.183 78.2897 36.183 71.7021 40.7079 71.3498L88.5736 69.2522C93.189 68.8917 96.8501 65.2537 97.2121 60.6817L99.3265 34.1099C99.6802 29.6198 106.32 29.6198 106.673 34.1099L108.788 60.6817C109.15 65.2619 112.819 68.8917 117.426 69.2522L165.292 71.3498C169.817 71.7021 169.817 78.2897 165.292 78.6421Z" fill="black"/>
<path d="M130.993 150H75.0071C33.6491 150 0 116.357 0 75.0041C0 33.6511 33.6491 0 75.0071 0H130.993C172.351 0 206 33.6429 206 75.0041C206 116.365 172.351 150.008 130.993 150.008V150ZM75.0071 11.471C40.0005 11.471 11.518 39.9683 11.518 75.0041C11.518 110.04 40.0005 138.537 75.0071 138.537H130.993C166 138.537 194.482 110.04 194.482 75.0041C194.482 39.9683 166 11.471 130.993 11.471H75.0071Z" fill="black"/>
</g>
<defs>
<clipPath id="clip0_486_1560">
<rect width="772.79" height="126.14" fill="white" transform="translate(240 12)"/>
</clipPath>
<clipPath id="clip1_486_1560">
<rect width="206" height="150" fill="white"/>
</clipPath>
</defs>
</svg>
